<?xml version="1.0" encoding="UTF-8" standalone="no"?>
<svg width="179px" height="32px" viewBox="0 0 179 32" version="1.1" xmlns="http://www.w3.org/2000/svg" xmlns:xlink="http://www.w3.org/1999/xlink">
    <!-- Generator: Sketch 3.7.2 (28276) - http://www.bohemiancoding.com/sketch -->
    <title>Oval-10-+-Group-Copy</title>
    <desc>Created with Sketch.</desc>
    <defs></defs>
    <g id="home" stroke="none" stroke-width="1" fill="none" fill-rule="evenodd">
        <g id="Desktop-HD" transform="translate(-1170.000000, -16.000000)" fill="#FFFFFF">
            <g id="Oval-10-+-Group-Copy" transform="translate(1170.000000, 16.000000)">
                <g id="Group" transform="translate(0.000000, 0.140378)">
                    <rect id="Rectangle-path" x="168.8213" y="5.67567568" width="3.70952632" height="3.78378378"></rect>
                    <path d="M43.9086789,23.7621622 C42.1674726,23.9135135 40.6533802,23.2324324 40.6533802,20.5837838 L40.6533802,13.4702703 L43.9086789,13.4702703 L43.9086789,11.1243243 L40.6533802,11.1243243 L40.6533802,5.67567568 L38.3065371,5.67567568 L38.3065371,11.1243243 L36.338217,11.1243243 L36.338217,13.4702703 L38.3065371,13.4702703 L38.3065371,20.5837838 C38.3065371,24.3675676 40.5776757,26.4108108 43.9086789,26.0324324 L43.9086789,23.7621622 L43.9086789,23.7621622 L43.9086789,23.7621622 Z" id="Shape"></path>
                    <path d="M58.368261,16.9513514 C58.368261,13.3189189 56.3242364,10.7459459 52.7661193,10.7459459 C51.0249131,10.7459459 49.5865253,11.427027 48.6023652,12.6378378 L48.6023652,5.67567568 L46.1798174,5.67567568 L46.1798174,25.8054054 L48.6023652,25.8054054 L48.6023652,16.8 C48.6023652,14.6054054 50.1921622,12.9405405 52.3875962,12.9405405 C54.7344394,12.9405405 55.9457133,14.5297297 55.9457133,16.8756757 L55.9457133,25.8054054 L58.2925564,25.8054054 L58.2925564,16.9513514 L58.368261,16.9513514 L58.368261,16.9513514 Z" id="Shape"></path>
                    <path d="M71.6165693,21.4918919 C70.8595231,23.2324324 69.3454308,24.2162162 67.301406,24.2162162 C64.8788582,24.2162162 62.6077197,22.4 62.2291966,19.372973 L74.4933448,19.372973 C74.4933448,14.1513514 70.9352278,10.972973 67.1499968,10.972973 C63.137652,10.972973 59.8066488,14.4540541 59.8066488,18.6918919 C59.8066488,23.0054054 63.0619474,26.4108108 67.301406,26.4108108 C70.7081139,26.4108108 73.1306617,24.6702703 74.1905263,21.4918919 L71.6165693,21.4918919 M62.3806058,17.1783784 C62.9862428,14.6810811 65.1059721,13.1675676 67.1499968,13.1675676 C69.2697261,13.1675676 71.2380462,14.7567568 71.8436832,17.1783784" id="Shape"></path>
                    <path d="M94.706478,21.0378378 L90.7698378,21.0378378 C90.3156102,22.0972973 89.1043363,22.9297297 87.7416531,22.9297297 C85.6976284,22.9297297 84.0321267,21.0378378 84.0321267,18.6918919 C84.0321267,16.3459459 85.6976284,14.3783784 87.7416531,14.3783784 C89.1043363,14.3783784 90.2399055,15.2108108 90.7698378,16.2702703 L94.706478,16.2702703 C93.8737273,12.9405405 91.2240656,10.972973 87.7416531,10.972973 C83.3507852,10.972973 80.2468959,14.4540541 80.2468959,18.6918919 C80.2468959,23.0054054 83.3507852,26.4108108 87.7416531,26.4108108 C91.2240656,26.3351351 93.8737273,24.3675676 94.706478,21.0378378 L94.706478,21.0378378 L94.706478,21.0378378 Z" id="Shape"></path>
                    <path d="M104.24526,22.9297297 C106.21358,22.9297297 107.879082,21.1891892 107.879082,18.7675676 C107.879082,16.1945946 106.289285,14.4540541 104.24526,14.4540541 C102.201235,14.4540541 100.687143,16.1945946 100.687143,18.7675676 C100.687143,21.2648649 102.27694,22.9297297 104.24526,22.9297297 L104.24526,22.9297297 L104.24526,22.9297297 Z M104.24526,10.972973 C108.257605,10.972973 111.588608,14.3027027 111.588608,18.6918919 C111.588608,23.0810811 108.257605,26.4108108 104.24526,26.4108108 C100.232915,26.4108108 96.9019119,23.1567568 96.9019119,18.6918919 C96.9776166,14.3027027 100.232915,10.972973 104.24526,10.972973 L104.24526,10.972973 L104.24526,10.972973 Z" id="Shape"></path>
                    <path d="M127.335168,21.0378378 L123.322824,21.0378378 C122.868596,22.0972973 121.657323,22.9297297 120.294639,22.9297297 C118.250615,22.9297297 116.585113,21.0378378 116.585113,18.6918919 C116.585113,16.3459459 118.250615,14.3783784 120.294639,14.3783784 C121.657323,14.3783784 122.792892,15.2108108 123.322824,16.2702703 L127.259464,16.2702703 C126.426713,12.9405405 123.777052,10.972973 120.294639,10.972973 C115.903771,10.972973 112.799882,14.4540541 112.799882,18.6918919 C112.799882,23.0054054 115.903771,26.4108108 120.294639,26.4108108 C123.852757,26.3351351 126.502418,24.3675676 127.335168,21.0378378 L127.335168,21.0378378 L127.335168,21.0378378 Z" id="Shape"></path>
                    <polygon id="Shape" points="135.05704 19.6 138.615157 25.8054054 143.384548 25.8054054 137.630996 16.8 143.08173 11.0486486 137.933815 11.0486486 133.164425 16.4216216 133.164425 5.67567568 129.454898 5.67567568 129.454898 25.8054054 133.164425 25.8054054 133.164425 21.5675676"></polygon>
                    <path d="M162.537816,18.6918919 C162.537816,16.3459459 160.872315,14.4540541 158.82829,14.4540541 C156.784266,14.4540541 155.118764,16.2702703 155.118764,18.6918919 C155.118764,21.0378378 156.784266,22.8540541 158.82829,22.8540541 C160.94802,22.8540541 162.537816,20.9621622 162.537816,18.6918919 L162.537816,18.6918919 L162.537816,18.6918919 Z M166.70157,11.2756757 L166.70157,26.1081081 L162.764931,26.1081081 L162.764931,24.4432432 C161.629361,25.6540541 160.039564,26.3351351 158.298358,26.3351351 C154.513127,26.3351351 151.409237,23.0054054 151.409237,18.6918919 C151.409237,14.3027027 154.513127,10.972973 158.298358,10.972973 C160.115268,10.972973 161.629361,11.6540541 162.764931,12.8648649 L162.764931,11.2756757 L166.70157,11.2756757 L166.70157,11.2756757 L166.70157,11.2756757 Z" id="Shape"></path>
                    <rect id="Rectangle-path" x="168.8213" y="10.972973" width="3.70952632" height="14.6810811"></rect>
                    <rect id="Rectangle-path" x="174.877669" y="5.67567568" width="3.70952632" height="20.1297297"></rect>
                    <path d="M29.1462782,0.378378378 L1.81691085,0.378378378 C0.832750806,0.378378378 0,1.21081081 0,2.19459459 L0,29.5135135 C0,30.6486486 0.832750806,31.3297297 1.81691085,31.3297297 L29.1462782,31.3297297 C30.1304382,31.3297297 30.963189,30.572973 30.963189,29.5135135 L30.963189,2.19459459 C31.0388937,1.21081081 30.2061429,0.378378378 29.1462782,0.378378378 Z M22.3328625,23.0054054 C17.6391762,27.772973 10.5986466,28.4540541 6.81341569,24.5945946 C2.87677551,20.6594595 3.6338217,13.6216216 8.32750806,8.85405405 C12.9454898,4.08648649 19.9860194,3.32972973 23.7712503,7.26486486 C27.7078905,11.1243243 26.9508443,18.2378378 22.3328625,23.0054054 Z" id="Shape"></path>
                    <path d="M8.33697114,20.2047587 L9.32113118,21.1128668 L10.2295866,20.2047587 C10.6838143,19.7507047 11.2894512,20.4317858 10.8352236,20.8101641 L9.92676813,21.7182722 L10.8352236,22.702056 C11.2894512,23.1561101 10.6081097,23.7615155 10.2295866,23.3074614 L9.32113118,22.3993533 L8.33697114,23.3831371 C7.88274343,23.8371912 7.27710647,23.1561101 7.73133418,22.7777317 L8.63978961,21.7939479 L7.73133418,20.8858398 C7.27710647,20.4317858 7.95844805,19.7507047 8.33697114,20.2047587 L8.33697114,20.2047587 L8.33697114,20.2047587 Z" id="Shape"></path>
                    <path d="M150.500782,22.5513514 C148.608166,22.7027027 147.396893,21.8702703 147.396893,19.7513514 L147.396893,14.3783784 L150.349373,14.3783784 L150.349373,11.0486486 L147.396893,11.0486486 L147.396893,5.67567568 L143.838775,5.67567568 L143.838775,19.6756757 C143.838775,23.8378378 146.185619,26.4864865 150.500782,26.0324324 L150.500782,22.5513514 L150.500782,22.5513514 L150.500782,22.5513514 Z" id="Shape"></path>
                </g>
            </g>
        </g>
    </g>
</svg>