<svg version="1.1" id="scene" xmlns="http://www.w3.org/2000/svg" xmlns:xlink="http://www.w3.org/1999/xlink" x="0px" y="0px"
	 viewBox="0 0 1150 510" enable-background="new 0 0 1150 510" xml:space="preserve">
<linearGradient id="small-cube-top-shadow_1_" gradientUnits="userSpaceOnUse" x1="410.2765" y1="155.7831" x2="410.2765" y2="187.5797">
	<stop  offset="0" style="stop-color:#4A294A;stop-opacity:0"/>
	<stop  offset="1" style="stop-color:#4A294A"/>
</linearGradient>
<polygon id="small-cube-top-shadow" class="shadow" fill="url(#small-cube-top-shadow_1_)" points="410.17,187.58 437.63,171.73 410.17,155.78
	382.92,171.85 "/>
<linearGradient id="pyramid-small-2-shadow_1_" gradientUnits="userSpaceOnUse" x1="285.4473" y1="136.2113" x2="285.4473" y2="222.8708">
	<stop  offset="0" style="stop-color:#4A294A;stop-opacity:0"/>
	<stop  offset="1" style="stop-color:#4A294A"/>
</linearGradient>
<polygon id="pyramid-small-2-shadow" class="shadow" fill="url(#pyramid-small-2-shadow_1_)" points="285.17,222.87 360,179.66 285.17,136.21
	210.89,179.99 "/>
<g id="squares-small-shadow" class="shadow" opacity="0.49">
	<g>
		<path fill="#4A294A" d="M88.1,282.02l34.53,19.93L88.1,321.88l-34.53-19.93L88.1,282.02 M88.1,272.78l-50.53,29.17l50.53,29.16
			l50.53-29.16L88.1,272.78L88.1,272.78z"/>
	</g>
</g>
<g id="squares-medium-shadow" class="shadow" opacity="0.49">
	<path fill="#4A294A" d="M724.7,381.72l85.61,48.78l-84.97,49.06l-85.05-49.1L724.7,381.72 M724.67,372.5l-100.38,57.96
		l101.05,58.34l101.05-58.35L724.67,372.5L724.67,372.5z"/>
</g>
<linearGradient id="red-pyramid-big-shadow_1_" gradientUnits="userSpaceOnUse" x1="499.478" y1="222.607" x2="499.478" y2="456.6297">
	<stop  offset="0" style="stop-color:#4A294A;stop-opacity:0"/>
	<stop  offset="1" style="stop-color:#4A294A"/>
</linearGradient>
<polygon id="red-pyramid-big-shadow" class="shadow" fill="url(#red-pyramid-big-shadow_1_)" points="498.72,456.63 700.81,339.95 498.72,222.61
	298.15,340.83 "/>
<linearGradient id="red-pyramid-medium-shadow_1_" gradientUnits="userSpaceOnUse" x1="283.4473" y1="351.4769" x2="283.4473" y2="457.6052">
	<stop  offset="0" style="stop-color:#4A294A;stop-opacity:0"/>
	<stop  offset="1" style="stop-color:#4A294A"/>
</linearGradient>
<polygon id="red-pyramid-medium-shadow" class="shadow" fill="url(#red-pyramid-medium-shadow_1_)" points="283.1,457.61 374.75,404.69
	283.1,351.48 192.14,405.09 "/>
<linearGradient id="pyramid-small-1-shadow_1_" gradientUnits="userSpaceOnUse" x1="188.4473" y1="191.2113" x2="188.4473" y2="277.8708">
	<stop  offset="0" style="stop-color:#4A294A;stop-opacity:0"/>
	<stop  offset="1" style="stop-color:#4A294A"/>
</linearGradient>
<polygon id="pyramid-small-1-shadow" class="shadow" fill="url(#pyramid-small-1-shadow_1_)" points="188.17,277.87 263,234.66 188.17,191.21
	113.89,234.99 "/>
<linearGradient id="i-pyramid-small-left-shadow_1_" gradientUnits="userSpaceOnUse" x1="686.4473" y1="277.0006" x2="686.4473" y2="330.0815">
	<stop  offset="0" style="stop-color:#4A294A;stop-opacity:0"/>
	<stop  offset="1" style="stop-color:#4A294A"/>
</linearGradient>
<polygon id="i-pyramid-small-left-shadow" class="shadow" fill="url(#i-pyramid-small-left-shadow_1_)" points="686.27,330.08 732.11,303.62
	686.27,277 640.78,303.82 "/>
<linearGradient id="i-pyramid-small-right-shadow_1_" gradientUnits="userSpaceOnUse" x1="998.4473" y1="448.0006" x2="998.4473" y2="501.0815">
	<stop  offset="0" style="stop-color:#4A294A;stop-opacity:0"/>
	<stop  offset="1" style="stop-color:#4A294A"/>
</linearGradient>
<polygon id="i-pyramid-small-right-shadow" class="shadow" opacity="0.5" fill="url(#i-pyramid-small-right-shadow_1_)" points="998.27,501.08
	1044.11,474.62 998.27,448 952.78,474.82 "/>
<linearGradient id="pyramid-medium-shadow_1_" gradientUnits="userSpaceOnUse" x1="870.4473" y1="307.4769" x2="870.4473" y2="465.6052">
	<stop  offset="0" style="stop-color:#4A294A;stop-opacity:0"/>
	<stop  offset="1" style="stop-color:#4A294A"/>
</linearGradient>
<polygon id="pyramid-medium-shadow" class="shadow" fill="url(#pyramid-medium-shadow_1_)" points="916.1,465.61 1007.75,412.69 824.1,307.48
	733.14,361.09 "/>
<linearGradient id="small-cube-left-shadow_1_" gradientUnits="userSpaceOnUse" x1="395.2765" y1="432.7831" x2="395.2765" y2="464.5797">
	<stop  offset="0" style="stop-color:#4A294A;stop-opacity:0"/>
	<stop  offset="1" style="stop-color:#4A294A"/>
</linearGradient>
<polygon id="small-cube-left-shadow" class="shadow" fill="url(#small-cube-left-shadow_1_)" points="395.17,464.58 422.63,448.73 395.17,432.78
	367.92,448.85 "/>
<linearGradient id="small-cube-right-shadow_1_" gradientUnits="userSpaceOnUse" x1="1084.2765" y1="354.7831" x2="1084.2765" y2="386.5797">
	<stop  offset="0" style="stop-color:#4A294A;stop-opacity:0"/>
	<stop  offset="1" style="stop-color:#4A294A"/>
</linearGradient>
<polygon id="small-cube-right-shadow" class="shadow" fill="url(#small-cube-right-shadow_1_)" points="1084.17,386.58 1111.63,370.73
	1084.17,354.78 1056.92,370.85 "/>
<g id="small-cube-top">
	<linearGradient id="XMLID_3_" gradientUnits="userSpaceOnUse" x1="339.5694" y1="209.0504" x2="418.5301" y2="109.4568">
		<stop  offset="0" style="stop-color:#7B071D"/>
		<stop  offset="1" style="stop-color:#FF204E;stop-opacity:0"/>
	</linearGradient>

		<polygon id="XMLID_68_" fill="url(#XMLID_3_)" stroke="#FFDC50" stroke-width="2" stroke-linejoin="round" stroke-miterlimit="10" points="
		379.09,114.19 379.09,148.91 409.17,166.27 409.17,131.55 	"/>
	<polygon id="XMLID_67_" fill="none" stroke="#FFDC50" stroke-width="2" stroke-linejoin="round" stroke-miterlimit="10" points="
		379.09,114.19 379.09,148.91 409.17,166.27 409.17,131.55 	"/>

		<polygon id="XMLID_66_" opacity="0.85" fill="#FF204E" stroke="#FFDC50" stroke-width="2" stroke-linejoin="round" stroke-miterlimit="10" points="
		439,148.85 439,114.33 409.54,131.55 409.13,166.27 	"/>
	<linearGradient id="XMLID_4_" gradientUnits="userSpaceOnUse" x1="409" y1="114.5" x2="409" y2="114.5">
		<stop  offset="0" style="stop-color:#4A294A;stop-opacity:0"/>
		<stop  offset="1" style="stop-color:#4A294A"/>
	</linearGradient>

		<line id="XMLID_65_" fill="url(#XMLID_4_)" stroke="#FFDC50" stroke-width="2" stroke-linejoin="round" stroke-miterlimit="10" x1="409" y1="132" x2="409" y2="97"/>
	<linearGradient id="XMLID_5_" gradientUnits="userSpaceOnUse" x1="379.0944" y1="114.1872" x2="439.236" y2="114.1872">
		<stop  offset="0" style="stop-color:#9D852E"/>
		<stop  offset="1" style="stop-color:#9D852E;stop-opacity:0"/>
	</linearGradient>

		<polygon id="XMLID_64_" fill="url(#XMLID_5_)" stroke="#FFDC50" stroke-width="2" stroke-linejoin="round" stroke-miterlimit="10" points="
		409.17,96.83 439.24,114.19 409.17,131.55 379.09,114.19 	"/>
</g>
<g id="pyramid-small-2">
	<polygon id="XMLID_63_" fill="none" stroke="#FFDC50" stroke-width="2" stroke-linejoin="round" stroke-miterlimit="10" points="
		364.09,144.46 283.78,98.09 283.77,50.67 	"/>

		<polygon id="XMLID_62_" opacity="0.85" fill="#FFDC50" stroke="#FFDC50" stroke-width="2" stroke-linejoin="round" stroke-miterlimit="10" points="
		283.76,190.78 364.09,144.46 283.74,50.67 	"/>
	<polygon id="XMLID_61_" fill="none" stroke="#FFDC50" stroke-width="2" stroke-linejoin="round" stroke-miterlimit="10" points="
		203.38,144.46 283.78,98.09 283.74,50.67 	"/>
	<linearGradient id="XMLID_6_" gradientUnits="userSpaceOnUse" x1="201.1424" y1="217.7615" x2="369.809" y2="18.4282">
		<stop  offset="0" style="stop-color:#9D852E"/>
		<stop  offset="1" style="stop-color:#9D852E;stop-opacity:0"/>
	</linearGradient>

		<polygon id="XMLID_60_" fill="url(#XMLID_6_)" stroke="#FFDC50" stroke-width="2" stroke-linejoin="round" stroke-miterlimit="10" points="
		283.76,190.78 203.38,144.46 283.74,50.67 	"/>
	<polygon id="XMLID_59_" fill="none" stroke="#FFDC50" stroke-width="2" stroke-linejoin="round" stroke-miterlimit="10" points="
		283.76,190.78 203.38,144.46 283.74,50.67 	"/>
</g>
<g id="squares-small">
	<g id="XMLID_58_">
		<path fill="#FFDC50" d="M87.1,214.71l38.53,22.24L87.1,259.19l-38.53-22.24L87.1,214.71 M87.1,207.78l-50.53,29.17l50.53,29.16
			l50.53-29.16L87.1,207.78L87.1,207.78z"/>
	</g>
	<g id="XMLID_57_">
		<path fill="#FFDC50" d="M88.1,226.4l42.53,24.55L88.1,275.5l-42.53-24.55L88.1,226.4 M88.1,221.78l-50.53,29.17l50.53,29.16
			l50.53-29.16L88.1,221.78L88.1,221.78z"/>
	</g>
	<g id="XMLID_56_">
		<path fill="#FFDC50" d="M89.1,238.09l46.53,26.86L89.1,291.81l-46.53-26.85L89.1,238.09 M89.1,235.78l-50.53,29.17l50.53,29.16
			l50.53-29.16L89.1,235.78L89.1,235.78z"/>
	</g>
</g>
<g id="red-pyramid-big">
	<polygon id="XMLID_55_" fill="none" stroke="#FFDC50" stroke-width="2" stroke-linejoin="round" stroke-miterlimit="10" points="
		498.71,186.27 296.63,302.95 498.72,419.63 700.81,302.95 	"/>

		<polygon id="XMLID_54_" opacity="0.85" fill="#FF204E" stroke="#FFDC50" stroke-width="2" stroke-linejoin="round" stroke-miterlimit="10" points="
		498.72,419.63 498.71,68.95 700.81,302.95 	"/>
	<linearGradient id="XMLID_7_" gradientUnits="userSpaceOnUse" x1="297.1235" y1="470.7122" x2="665.1235" y2="57.3788">
		<stop  offset="0" style="stop-color:#7B071D"/>
		<stop  offset="1" style="stop-color:#FF204E;stop-opacity:0"/>
	</linearGradient>
	<polygon id="XMLID_53_" fill="url(#XMLID_7_)" points="498.72,419.63 296.63,302.95 498.71,68.95 	"/>
	<polygon id="XMLID_52_" fill="none" stroke="#FFDC50" stroke-width="2" stroke-linejoin="round" stroke-miterlimit="10" points="
		498.72,419.63 296.63,302.95 498.71,68.95 	"/>
</g>
<g id="pyramid-medium">
	<polygon id="XMLID_51_" fill="none" stroke="#FFDC50" stroke-width="2" stroke-linejoin="round" stroke-miterlimit="10" points="
		916.09,227.5 815.05,169.16 815.04,109.5 	"/>

		<polygon id="XMLID_50_" opacity="0.9" fill="#FFDC50" stroke="#FFDC50" stroke-width="2" stroke-linejoin="round" stroke-miterlimit="10" points="
		815.02,285.78 916.09,227.5 815,109.5 	"/>
	<polygon id="XMLID_49_" fill="none" stroke="#FFDC50" stroke-width="2" stroke-linejoin="round" stroke-miterlimit="10" points="
		713.9,227.5 815.05,169.16 815,109.5 	"/>
	<linearGradient id="XMLID_8_" gradientUnits="userSpaceOnUse" x1="755.5945" y1="267.094" x2="926.9279" y2="65.0939">
		<stop  offset="0" style="stop-color:#9D852E"/>
		<stop  offset="1" style="stop-color:#9D852E;stop-opacity:0"/>
	</linearGradient>

		<polygon id="XMLID_48_" fill="url(#XMLID_8_)" stroke="#FFDC50" stroke-width="2" stroke-linejoin="round" stroke-miterlimit="10" points="
		815.02,285.78 713.9,227.5 815,109.5 	"/>
	<polygon id="XMLID_47_" fill="none" stroke="#FFDC50" stroke-width="2" stroke-linejoin="round" stroke-miterlimit="10" points="
		815.02,285.78 713.9,227.5 815,109.5 	"/>
</g>
<g id="pyramid-small-1">
	<polygon id="XMLID_46_" fill="none" stroke="#FFDC50" stroke-width="2" stroke-linejoin="round" stroke-miterlimit="10" points="
		267.09,199.46 186.78,153.09 186.77,105.67 	"/>

		<polygon id="XMLID_45_" opacity="0.85" fill="#FFDC50" stroke="#FFDC50" stroke-width="2" stroke-linejoin="round" stroke-miterlimit="10" points="
		186.76,245.78 267.09,199.46 186.74,105.67 	"/>
	<polygon id="XMLID_44_" fill="none" stroke="#FFDC50" stroke-width="2" stroke-linejoin="round" stroke-miterlimit="10" points="
		106.38,199.46 186.78,153.09 186.74,105.67 	"/>
	<linearGradient id="XMLID_9_" gradientUnits="userSpaceOnUse" x1="104.1424" y1="272.7615" x2="272.809" y2="73.4282">
		<stop  offset="0" style="stop-color:#9D852E"/>
		<stop  offset="1" style="stop-color:#9D852E;stop-opacity:0"/>
	</linearGradient>

		<polygon id="XMLID_43_" fill="url(#XMLID_9_)" stroke="#FFDC50" stroke-width="2" stroke-linejoin="round" stroke-miterlimit="10" points="
		186.76,245.78 106.38,199.46 186.74,105.67 	"/>
	<polygon id="XMLID_42_" fill="none" stroke="#FFDC50" stroke-width="2" stroke-linejoin="round" stroke-miterlimit="10" points="
		186.76,245.78 106.38,199.46 186.74,105.67 	"/>
</g>
<g id="squares-medium">
	<g id="XMLID_41_">
		<path fill="#FFDC50" d="M725.69,317.42l89.63,51.07l-88.99,51.38l-89.05-51.41L725.69,317.42 M725.67,310.5l-100.38,57.96
			l101.05,58.34l101.05-58.35L725.67,310.5L725.67,310.5z"/>
	</g>
	<g id="XMLID_40_">
		<path fill="#FFDC50" d="M725.68,332.11l93.66,53.37l-93.01,53.7l-93.05-53.72L725.68,332.11 M725.67,327.5l-100.38,57.96
			l101.05,58.34l101.05-58.35L725.67,327.5L725.67,327.5z"/>
	</g>
	<g id="XMLID_39_">
		<path fill="#FFDC50" d="M725.68,344.81l97.69,55.66l-97.03,56.02l-97.05-56.03L725.68,344.81 M725.67,342.5l-100.38,57.96
			l101.05,58.34l101.05-58.35L725.67,342.5L725.67,342.5z"/>
	</g>
</g>
<g id="red-pyramid-medium">
	<polygon id="XMLID_38_" fill="none" stroke="#FFDC50" stroke-width="2" stroke-linejoin="round" stroke-miterlimit="10" points="
		384.09,366.5 283.05,308.16 283.04,248.5 	"/>

		<polygon id="XMLID_37_" opacity="0.85" fill="#FF204E" stroke="#FFDC50" stroke-width="2" stroke-linejoin="round" stroke-miterlimit="10" points="
		283.02,424.78 384.09,366.5 283,248.5 	"/>
	<polygon id="XMLID_36_" fill="none" stroke="#FFDC50" stroke-width="2" stroke-linejoin="round" stroke-miterlimit="10" points="
		181.9,366.5 283.05,308.16 283,248.5 	"/>
	<linearGradient id="XMLID_69_" gradientUnits="userSpaceOnUse" x1="192.5962" y1="440.8947" x2="388.5962" y2="214.8947">
		<stop  offset="0" style="stop-color:#7B071D"/>
		<stop  offset="1" style="stop-color:#FF204E;stop-opacity:0"/>
	</linearGradient>
	<polygon id="XMLID_35_" fill="url(#XMLID_69_)" points="283.02,424.78 181.9,366.5 283,248.5 	"/>
	<polygon id="XMLID_34_" fill="none" stroke="#FFDC50" stroke-width="2" stroke-linejoin="round" stroke-miterlimit="10" points="
		283.02,424.78 181.9,366.5 283,248.5 	"/>
</g>
<g id="i-pyramid-medium">
	<polygon id="XMLID_33_" fill="none" stroke="#FFDC50" stroke-width="2" stroke-linejoin="round" stroke-miterlimit="10" points="
		814.9,285.5 916.05,227.16 916,402.5 	"/>
	<polygon id="XMLID_32_" fill="none" stroke="#FFDC50" stroke-width="2" stroke-linejoin="round" stroke-miterlimit="10" points="
		1017.09,285.5 916.05,227.16 916.04,402.5 	"/>
	<polygon id="XMLID_31_" fill="none" stroke="#FFDC50" stroke-width="2" stroke-linejoin="round" stroke-miterlimit="10" points="
		916.02,343.78 1017.09,285.5 916,402.5 	"/>
	<linearGradient id="XMLID_76_" gradientUnits="userSpaceOnUse" x1="814.8994" y1="344" x2="916.0209" y2="344">
		<stop  offset="0" style="stop-color:#9D852E"/>
		<stop  offset="1" style="stop-color:#9D852E;stop-opacity:0"/>
	</linearGradient>

		<polygon id="XMLID_30_" fill="url(#XMLID_76_)" stroke="#FFDC50" stroke-width="2" stroke-linejoin="round" stroke-miterlimit="10" points="
		916.02,343.78 814.9,285.5 916,402.5 	"/>
	<linearGradient id="XMLID_77_" gradientUnits="userSpaceOnUse" x1="855.3298" y1="319.4025" x2="1045.9965" y2="213.4025">
		<stop  offset="0" style="stop-color:#9D852E"/>
		<stop  offset="1" style="stop-color:#9D852E;stop-opacity:0"/>
	</linearGradient>

		<polygon id="XMLID_29_" fill="url(#XMLID_77_)" stroke="#FFDC50" stroke-width="2" stroke-linejoin="round" stroke-miterlimit="10" points="
		814.9,285.5 916.09,227.5 1017.09,285.5 916.02,343.78 	"/>
</g>
<g id="i-pyramid-small-left">
	<polygon id="XMLID_28_" fill="none" stroke="#FFDC50" stroke-width="2" stroke-linejoin="round" stroke-miterlimit="10" points="
		630.9,178.21 686.48,146.16 686.45,242.5 	"/>
	<polygon id="XMLID_27_" fill="none" stroke="#FFDC50" stroke-width="2" stroke-linejoin="round" stroke-miterlimit="10" points="
		742,178.21 686.48,146.16 686.47,242.5 	"/>
	<polygon id="XMLID_26_" fill="none" stroke="#FFDC50" stroke-width="2" stroke-linejoin="round" stroke-miterlimit="10" points="
		686.46,210.24 742,178.21 686.45,242.5 	"/>
	<linearGradient id="XMLID_78_" gradientUnits="userSpaceOnUse" x1="630.8994" y1="210.3557" x2="686.4632" y2="210.3557">
		<stop  offset="0" style="stop-color:#9D852E"/>
		<stop  offset="1" style="stop-color:#9D852E;stop-opacity:0"/>
	</linearGradient>

		<polygon id="XMLID_25_" fill="url(#XMLID_78_)" stroke="#FFDC50" stroke-width="2" stroke-linejoin="round" stroke-miterlimit="10" points="
		686.46,210.24 630.9,178.21 686.45,242.5 	"/>
	<linearGradient id="XMLID_79_" gradientUnits="userSpaceOnUse" x1="648.1908" y1="200.3349" x2="801.5241" y2="111.6683">
		<stop  offset="0" style="stop-color:#9D852E"/>
		<stop  offset="1" style="stop-color:#9D852E;stop-opacity:0"/>
	</linearGradient>

		<polygon id="XMLID_24_" fill="url(#XMLID_79_)" stroke="#FFDC50" stroke-width="2" stroke-linejoin="round" stroke-miterlimit="10" points="
		630.9,178.21 686.5,146.34 742,178.21 686.46,210.24 	"/>
</g>
<g id="i-pyramid-small-right">
	<polygon id="XMLID_23_" fill="none" stroke="#FFDC50" stroke-width="2" stroke-linejoin="round" stroke-miterlimit="10" points="
		938.9,359.21 994.48,327.16 994.45,423.5 	"/>
	<polygon id="XMLID_22_" fill="none" stroke="#FFDC50" stroke-width="2" stroke-linejoin="round" stroke-miterlimit="10" points="
		1050,359.21 994.48,327.16 994.47,423.5 	"/>
	<polygon id="XMLID_21_" fill="none" stroke="#FFDC50" stroke-width="2" stroke-linejoin="round" stroke-miterlimit="10" points="
		994.46,391.24 1050,359.21 994.45,423.5 	"/>
	<linearGradient id="XMLID_80_" gradientUnits="userSpaceOnUse" x1="938.8994" y1="391.3557" x2="994.4632" y2="391.3557">
		<stop  offset="0" style="stop-color:#9D852E"/>
		<stop  offset="1" style="stop-color:#9D852E;stop-opacity:0"/>
	</linearGradient>

		<polygon id="XMLID_20_" fill="url(#XMLID_80_)" stroke="#FFDC50" stroke-width="2" stroke-linejoin="round" stroke-miterlimit="10" points="
		994.46,391.24 938.9,359.21 994.45,423.5 	"/>
	<linearGradient id="XMLID_81_" gradientUnits="userSpaceOnUse" x1="956.1908" y1="381.3349" x2="1109.5242" y2="292.6683">
		<stop  offset="0" style="stop-color:#9D852E"/>
		<stop  offset="1" style="stop-color:#9D852E;stop-opacity:0"/>
	</linearGradient>

		<polygon id="XMLID_19_" fill="url(#XMLID_81_)" stroke="#FFDC50" stroke-width="2" stroke-linejoin="round" stroke-miterlimit="10" points="
		938.9,359.21 994.5,327.34 1050,359.21 994.46,391.24 	"/>
</g>
<g id="small-cube-left">
	<linearGradient id="XMLID_82_" gradientUnits="userSpaceOnUse" x1="324.5694" y1="486.0504" x2="403.5301" y2="386.4568">
		<stop  offset="0" style="stop-color:#7B071D"/>
		<stop  offset="1" style="stop-color:#FF204E;stop-opacity:0"/>
	</linearGradient>

		<polygon id="XMLID_18_" fill="url(#XMLID_82_)" stroke="#FFDC50" stroke-width="2" stroke-linejoin="round" stroke-miterlimit="10" points="
		364.09,391.19 364.09,425.91 394.17,443.27 394.17,408.55 	"/>
	<polygon id="XMLID_17_" fill="none" stroke="#FFDC50" stroke-width="2" stroke-linejoin="round" stroke-miterlimit="10" points="
		364.09,391.19 364.09,425.91 394.17,443.27 394.17,408.55 	"/>

		<polygon id="XMLID_16_" opacity="0.85" fill="#FF204E" stroke="#FFDC50" stroke-width="2" stroke-linejoin="round" stroke-miterlimit="10" points="
		424,425.85 424,391.33 394.54,408.55 394.13,443.27 	"/>
	<linearGradient id="XMLID_83_" gradientUnits="userSpaceOnUse" x1="394" y1="391.5" x2="394" y2="391.5">
		<stop  offset="0" style="stop-color:#4A294A;stop-opacity:0"/>
		<stop  offset="1" style="stop-color:#4A294A"/>
	</linearGradient>

		<line id="XMLID_15_" fill="url(#XMLID_83_)" stroke="#FFDC50" stroke-width="2" stroke-linejoin="round" stroke-miterlimit="10" x1="394" y1="409" x2="394" y2="374"/>
	<linearGradient id="XMLID_84_" gradientUnits="userSpaceOnUse" x1="364.0944" y1="391.1872" x2="424.236" y2="391.1872">
		<stop  offset="0" style="stop-color:#9D852E"/>
		<stop  offset="1" style="stop-color:#9D852E;stop-opacity:0"/>
	</linearGradient>

		<polygon id="XMLID_14_" fill="url(#XMLID_84_)" stroke="#FFDC50" stroke-width="2" stroke-linejoin="round" stroke-miterlimit="10" points="
		394.17,373.83 424.24,391.19 394.17,408.55 364.09,391.19 	"/>
</g>
<g id="small-cube-right">
	<linearGradient id="XMLID_85_" gradientUnits="userSpaceOnUse" x1="1013.5694" y1="408.0504" x2="1092.5302" y2="308.4568">
		<stop  offset="0" style="stop-color:#7B071D"/>
		<stop  offset="1" style="stop-color:#FF204E;stop-opacity:0"/>
	</linearGradient>

		<polygon id="XMLID_13_" fill="url(#XMLID_85_)" stroke="#FFDC50" stroke-width="2" stroke-linejoin="round" stroke-miterlimit="10" points="
		1053.09,313.19 1053.09,347.91 1083.17,365.27 1083.17,330.55 	"/>
	<polygon id="XMLID_12_" fill="none" stroke="#FFDC50" stroke-width="2" stroke-linejoin="round" stroke-miterlimit="10" points="
		1053.09,313.19 1053.09,347.91 1083.17,365.27 1083.17,330.55 	"/>

		<polygon id="XMLID_11_" opacity="0.85" fill="#FF204E" stroke="#FFDC50" stroke-width="2" stroke-linejoin="round" stroke-miterlimit="10" points="
		1113,347.85 1113,313.33 1083.54,330.55 1083.13,365.27 	"/>
	<linearGradient id="XMLID_86_" gradientUnits="userSpaceOnUse" x1="1083" y1="313.5" x2="1083" y2="313.5">
		<stop  offset="0" style="stop-color:#4A294A;stop-opacity:0"/>
		<stop  offset="1" style="stop-color:#4A294A"/>
	</linearGradient>

		<line id="XMLID_10_" fill="url(#XMLID_86_)" stroke="#FFDC50" stroke-width="2" stroke-linejoin="round" stroke-miterlimit="10" x1="1083" y1="331" x2="1083" y2="296"/>
	<linearGradient id="XMLID_87_" gradientUnits="userSpaceOnUse" x1="1053.0944" y1="313.1872" x2="1113.2361" y2="313.1872">
		<stop  offset="0" style="stop-color:#9D852E"/>
		<stop  offset="1" style="stop-color:#9D852E;stop-opacity:0"/>
	</linearGradient>

		<polygon id="XMLID_1_" fill="url(#XMLID_87_)" stroke="#FFDC50" stroke-width="2" stroke-linejoin="round" stroke-miterlimit="10" points="
		1083.17,295.83 1113.24,313.19 1083.17,330.55 1053.09,313.19 	"/>
</g>
</svg>
